<svg width="816" height="1056" viewBox="0 0 816 1056" fill="none" xmlns="http://www.w3.org/2000/svg">
<g clip-path="url(#clip0_920_110)">
<mask id="mask0_920_110" style="mask-type:luminance" maskUnits="userSpaceOnUse" x="0" y="0" width="816" height="1056">
<path d="M0 -3.14713e-05H816V1056H0V-3.14713e-05Z" fill="white"/>
</mask>
<g mask="url(#mask0_920_110)">
<path d="M54.6618 56.4035C53.0071 187.174 57.8085 318.453 69.0671 450.242C81.0498 577.745 108.07 703.318 166.746 820.686C228.774 927.725 299.907 1007.31 402.022 1040.24C510.656 1001.1 542.542 961.23 602.998 877.161C748.943 674.213 750.072 317.332 750.072 56.4035H54.6618Z" stroke="white" stroke-width="10.3813" stroke-miterlimit="22.926"/>
<path d="M80.4238 80.746C77.0305 184.639 80.4331 292.985 89.2611 393.858C95.8518 471.787 103.557 554.85 122.201 628.261C137.108 695.601 160.7 759.295 193.649 819.255C215.684 855.283 247.592 899.714 278.614 934.485C312.345 966.978 352.265 996.506 401.97 1009.18C502.533 972.249 531.814 934.458 588.01 855.287C723.445 664.483 724.681 328.122 724.157 80.746H80.4238Z" stroke="white" stroke-width="13.8707" stroke-miterlimit="22.926"/>
<path fill-rule="evenodd" clip-rule="evenodd" d="M94.1914 384.779L260.55 220.085L332.301 284.719L396.431 230.029L505.01 310.201L712.435 384.779H94.1914Z" fill="white"/>
</g>
<path d="M284.725 105.012H301.474V149.94C301.474 157.07 301.681 161.691 302.096 163.803C302.813 167.198 304.51 169.933 307.189 172.008C309.905 174.045 313.602 175.063 318.279 175.063C323.032 175.063 326.616 174.102 329.03 172.178C331.445 170.216 332.897 167.821 333.387 164.991C333.878 162.162 334.123 157.466 334.123 150.902V105.012H350.872V148.582C350.872 158.541 350.419 165.576 349.514 169.688C348.609 173.8 346.93 177.27 344.478 180.1C342.064 182.929 338.82 185.192 334.745 186.89C330.671 188.55 325.352 189.379 318.789 189.379C310.867 189.379 304.85 188.474 300.738 186.663C296.664 184.815 293.439 182.438 291.062 179.534C288.686 176.591 287.12 173.517 286.366 170.31C285.272 165.557 284.725 158.541 284.725 149.261V105.012Z" fill="white"/>
<path d="M368.395 187.965V172.064H384.295V187.965H368.395Z" fill="white"/>
<path d="M432.883 105.012H463.495C470.398 105.012 475.661 105.54 479.282 106.596C484.148 108.03 488.317 110.576 491.787 114.235C495.258 117.894 497.899 122.383 499.709 127.702C501.52 132.983 502.425 139.509 502.425 147.28C502.425 154.108 501.577 159.993 499.879 164.935C497.804 170.971 494.843 175.856 490.995 179.59C488.091 182.42 484.167 184.626 479.226 186.211C475.529 187.38 470.587 187.965 464.4 187.965H432.883V105.012ZM449.632 119.045V173.988H462.137C466.815 173.988 470.191 173.724 472.266 173.196C474.982 172.517 477.226 171.367 478.999 169.745C480.81 168.122 482.281 165.463 483.413 161.766C484.545 158.032 485.11 152.958 485.11 146.545C485.11 140.132 484.545 135.209 483.413 131.776C482.281 128.343 480.697 125.665 478.66 123.741C476.623 121.817 474.039 120.516 470.908 119.837C468.569 119.309 463.985 119.045 457.158 119.045H449.632Z" fill="white"/>
<path d="M516.496 187.965V172.064H532.396V187.965H516.496Z" fill="white"/>
<mask id="mask1_920_110" style="mask-type:luminance" maskUnits="userSpaceOnUse" x="0" y="0" width="816" height="1056">
<path d="M0 -3.14713e-05H816V1056H0V-3.14713e-05Z" fill="white"/>
</mask>
<g mask="url(#mask1_920_110)">
<path d="M135.761 605.213L215.264 581.547L222.598 606.155L172.772 637.075L231.357 635.541L238.708 660.205L159.206 683.871L154.652 668.595L217.235 649.966L149.834 652.43L145.116 636.599L202.897 601.86L140.314 620.489L135.761 605.213Z" fill="white"/>
<path d="M200.525 681.691C208.436 678.721 215.531 677.44 221.81 677.848C226.445 678.172 230.919 679.299 235.231 681.23C239.557 683.197 243.179 685.758 246.098 688.913C250.009 693.1 253.181 698.431 255.615 704.906C260.02 716.626 259.992 727.327 255.531 737.01C251.083 746.729 242.538 753.962 229.895 758.709C217.357 763.416 206.227 763.611 196.505 759.295C186.818 754.966 179.779 746.959 175.387 735.276C170.941 723.447 170.921 712.723 175.325 703.103C179.764 693.469 188.164 686.332 200.525 681.691ZM207.274 698.042C198.481 701.343 192.588 705.929 189.595 711.8C186.638 717.657 186.363 723.787 188.769 730.189C191.176 736.592 195.39 740.995 201.411 743.398C207.482 745.825 215.02 745.347 224.025 741.966C232.925 738.625 238.81 734.124 241.68 728.465C244.564 722.842 244.762 716.72 242.274 710.101C239.786 703.481 235.555 698.981 229.583 696.6C223.646 694.206 216.209 694.687 207.274 698.042Z" fill="white"/>
<path d="M197.201 782.432L268.615 740.233L277.112 754.604L247.124 812.722L294.814 784.541L302.927 798.263L231.513 840.461L222.751 825.642L251.885 768.635L205.315 796.153L197.201 782.432Z" fill="white"/>
<path d="M253.319 869.056L307.939 827.022L292.555 807.045L303.676 798.486L344.877 851.988L333.756 860.547L318.407 840.615L263.788 882.65L253.319 869.056Z" fill="white"/>
<path d="M289.769 914.681L346.791 854.433L392.571 897.727L382.925 907.919L349.611 876.414L336.97 889.771L367.967 919.086L358.36 929.237L327.362 899.922L311.843 916.32L346.336 948.94L336.728 959.091L289.769 914.681Z" fill="white"/>
</g>
<path d="M610.157 664.75C601.676 662.319 594.922 659.01 589.894 654.823C586.196 651.715 583.129 648.049 580.693 643.827C578.268 639.567 576.8 635.254 576.29 630.887C575.581 625.071 576.198 618.774 578.141 611.997C581.658 599.73 588.275 591.015 597.99 585.852C607.717 580.651 619.358 579.993 632.912 583.879C646.353 587.732 655.83 594.403 661.346 603.892C666.823 613.37 667.808 624.224 664.302 636.453C660.753 648.834 654.164 657.597 644.534 662.745C634.867 667.881 623.408 668.549 610.157 664.75ZM614.555 647.266C623.982 649.969 631.762 649.843 637.894 646.89C643.989 643.925 647.997 639.092 649.918 632.391C651.839 625.689 651.009 619.51 647.427 613.853C643.818 608.148 637.187 603.911 627.532 601.143C617.991 598.408 610.271 598.468 604.371 601.325C598.482 604.144 594.545 609.017 592.559 615.946C590.572 622.875 591.356 629.143 594.911 634.751C598.428 640.348 604.976 644.52 614.555 647.266Z" fill="white"/>
<path d="M619.319 754.467L539.596 720.628L553.976 686.749C557.592 678.229 560.941 672.355 564.022 669.128C567.082 665.849 570.936 663.826 575.583 663.06C580.229 662.294 584.909 662.911 589.622 664.911C595.604 667.451 599.806 671.309 602.229 676.488C604.616 681.651 604.832 687.947 602.877 695.375C606.384 692.756 609.83 690.838 613.213 689.621C616.611 688.368 622.226 687.136 630.057 685.924L649.741 682.792L641.57 702.043L619.283 706.317C611.329 707.819 606.232 708.993 603.99 709.838C601.712 710.668 599.922 711.812 598.619 713.27C597.279 714.712 595.824 717.283 594.255 720.981L592.87 724.243L626.152 738.37L619.319 754.467ZM580.145 718.842L585.2 706.933C588.477 699.211 590.198 694.25 590.361 692.052C590.524 689.853 590.038 687.872 588.905 686.107C587.771 684.342 586.008 682.952 583.615 681.936C580.932 680.798 578.467 680.607 576.22 681.365C573.953 682.071 572.047 683.637 570.504 686.063C569.769 687.291 568.016 691.168 565.247 697.694L559.915 710.256L580.145 718.842Z" fill="white"/>
<path d="M501.285 786.806L510.029 771.662L550.651 795.116C557.097 798.838 561.384 801.063 563.511 801.791C566.954 802.915 570.313 802.808 573.588 801.469C576.847 800.077 579.698 797.266 582.14 793.037C584.621 788.739 585.622 784.997 585.143 781.809C584.63 778.602 583.222 776.039 580.92 774.118C578.618 772.198 574.5 769.525 568.565 766.098L527.073 742.142L535.816 726.998L575.211 749.743C584.215 754.942 590.34 759.024 593.585 761.989C596.83 764.954 599.092 768.284 600.37 771.978C601.668 775.637 602.021 779.752 601.429 784.322C600.803 788.872 598.776 794.115 595.35 800.049C591.214 807.212 587.255 812.18 583.471 814.952C579.673 817.671 575.84 819.346 571.973 819.979C568.072 820.592 564.475 820.402 561.182 819.41C556.314 817.918 549.684 814.75 541.294 809.906L501.285 786.806Z" fill="white"/>
<path d="M484.89 882.159C477.938 876.727 472.916 871.129 469.823 865.364C467.56 861.096 466.089 856.548 465.413 851.721C464.76 846.863 465.016 842.314 466.179 838.074C467.701 832.416 470.632 826.809 474.973 821.254C482.83 811.198 492.23 805.597 503.172 804.45C514.139 803.272 525.178 807.024 536.289 815.705C547.306 824.314 553.594 834.05 555.152 844.914C556.679 855.754 553.526 866.186 545.694 876.211C537.764 886.36 528.371 892.016 517.515 893.18C506.628 894.32 495.753 890.647 484.89 882.159ZM495.519 867.597C503.247 873.635 510.507 876.434 517.299 875.993C524.06 875.527 529.587 872.548 533.879 867.055C538.172 861.562 539.717 855.522 538.516 848.935C537.307 842.293 532.746 835.88 524.832 829.696C517.011 823.585 509.831 820.749 503.291 821.187C496.775 821.594 491.298 824.637 486.86 830.317C482.423 835.996 480.801 842.102 481.996 848.633C483.159 855.14 487.667 861.462 495.519 867.597Z" fill="white"/>
<path d="M468.781 957.065L410.197 894.239L422.987 882.312L471.619 934.466L503.421 904.812L513.373 915.485L468.781 957.065Z" fill="white"/>
<mask id="mask2_920_110" style="mask-type:luminance" maskUnits="userSpaceOnUse" x="0" y="0" width="816" height="1056">
<path d="M0 -3.14713e-05H816V1056H0V-3.14713e-05Z" fill="white"/>
</mask>
<g mask="url(#mask2_920_110)">
<path fill-rule="evenodd" clip-rule="evenodd" d="M378.635 613.989C390.859 619.014 408.447 620.534 425.41 613.959L444.423 655.343L402.16 923.394L359.896 655.343L378.635 613.989Z" fill="white"/>
<path fill-rule="evenodd" clip-rule="evenodd" d="M573.915 549.235C558.262 529.941 543.17 504.605 526.254 496.878C515.685 493.21 505.822 491.014 495.242 491.851C491.859 492.783 483.734 492.189 486.657 500.866L505.325 532.006C505.165 532.659 509.729 538.895 497.695 539.337L470.535 539.007C471.507 545.926 471.454 552.866 470.301 559.837L495.695 559.587C499.169 559.553 507.118 558.745 505.937 565.277C505.383 568.333 493.09 585.769 487.343 596.531C484.374 602.09 486.369 604.89 486.993 605.15C490.601 606.653 497.669 607.473 503.645 607.794C509.386 608.102 523.442 607.861 534.495 598.114C540.297 592.997 556.867 569.77 559.139 566.446C561.691 562.711 568.167 553.615 573.915 549.235Z" fill="white"/>
<path fill-rule="evenodd" clip-rule="evenodd" d="M223.979 549.284C239.632 568.579 254.724 593.916 271.64 601.642C282.211 605.31 292.072 607.506 302.652 606.668C306.036 605.736 314.16 606.332 311.237 597.654L292.569 566.515C292.729 565.861 288.167 559.624 300.199 559.183L329.125 559.522C327.885 552.733 327.648 545.782 328.7 538.607L302.199 538.932C298.727 538.975 290.775 539.775 291.957 533.243C292.512 530.186 304.805 512.751 310.552 501.989C313.52 496.43 311.525 493.63 310.901 493.371C307.293 491.867 300.227 491.047 294.249 490.726C288.508 490.418 274.452 490.659 263.4 500.406C257.597 505.525 241.027 528.75 238.755 532.075C236.203 535.809 229.728 544.906 223.979 549.284Z" fill="white"/>
<path fill-rule="evenodd" clip-rule="evenodd" d="M402.302 373.934C383.007 389.587 357.671 404.679 349.945 421.595C346.277 432.166 344.081 442.026 344.918 452.607C345.85 455.991 345.254 464.115 353.933 461.193L385.071 442.525C385.726 442.685 391.962 438.122 392.403 450.154L392.07 477.683C399.122 476.566 406.071 476.737 412.945 477.875L412.654 452.154C412.615 448.682 411.811 440.731 418.343 441.913C421.401 442.467 438.835 454.761 449.598 460.507C455.157 463.475 457.957 461.481 458.217 460.857C459.719 457.249 460.539 450.182 460.861 444.205C461.169 438.463 460.927 424.407 451.181 413.355C446.063 407.553 422.837 390.982 419.513 388.71C415.778 386.158 406.681 379.683 402.302 373.934Z" fill="white"/>
<path fill-rule="evenodd" clip-rule="evenodd" d="M393.181 476.377C383.437 477.117 372.412 480.541 364.996 484.796C359.692 487.84 353.317 491.873 349.304 496.051L344.553 500.829C332.039 516.749 324.341 534.303 326.596 556.476C330.513 594.981 363.764 627.105 406.759 622.912C473.061 616.445 495.019 533.908 448.231 494.355C432.375 480.951 414.98 474.721 393.181 476.377ZM400.26 498.175L400.051 524.503C402.318 525.541 414.668 534.81 420.098 538.886L420.098 538.886C420.872 539.467 421.505 539.942 421.948 540.273C425.315 542.785 426.134 542.484 430.28 540.965L430.28 540.965L430.28 540.965C431.638 540.467 433.353 539.839 435.631 539.135C440.276 537.702 445.399 536.097 449.849 534.381C449.931 528.433 450.137 523.943 450.295 520.477C450.595 513.918 450.727 511.031 449.533 508.881C448.594 507.19 446.835 505.955 443.693 503.749L443.163 503.377L428.541 492.735C428.245 492.521 427.974 492.323 427.725 492.14L427.725 492.14C426.25 491.061 425.522 490.527 424.734 490.417C423.965 490.31 423.139 490.606 421.507 491.191L421.506 491.192C420.999 491.374 420.414 491.584 419.728 491.818C416.634 492.876 413.515 493.866 410.41 494.852L410.409 494.852C406.991 495.937 403.591 497.017 400.26 498.175ZM378.763 609.336C374.635 603.713 369.836 597.176 369.234 595.734C373.458 589.561 377.608 583.795 382.134 577.691L382.261 577.52L382.261 577.52L382.262 577.52C383.269 576.161 383.824 575.411 384.568 575.01C385.481 574.518 386.679 574.553 389.349 574.63C390.674 574.668 392.361 574.717 394.556 574.717C399.022 574.717 402.496 574.639 405.237 574.578C411.417 574.44 413.876 574.385 415.59 575.488C416.723 576.217 417.53 577.451 418.871 579.501C419.661 580.708 420.636 582.197 421.97 584.033C423.197 585.719 424.689 587.735 425.922 589.402L425.926 589.407L425.926 589.407L426.253 589.849C426.489 590.168 426.78 590.549 427.097 590.964L427.097 590.964C428.291 592.526 429.861 594.581 430.312 595.734C429.664 597.117 425.714 602.491 421.987 607.561L421.987 607.561C419.051 611.556 416.253 615.363 415.32 616.878L384.297 616.993C383.293 615.507 381.139 612.573 378.763 609.336ZM374.186 585.501L374.186 585.501C375.754 583.316 377.331 581.12 378.902 578.958C379.177 578.58 379.434 578.231 379.672 577.908L379.673 577.906L379.673 577.906L379.673 577.905L379.676 577.902L379.676 577.902C380.994 576.112 381.755 575.077 382.019 573.928C382.38 572.352 381.802 570.561 380.433 566.314C379.905 564.675 379.26 562.672 378.505 560.174C377.755 557.695 376.961 555.314 376.155 552.892L376.154 552.892L376.154 552.891L376.154 552.891L376.154 552.89L376.154 552.89L376.154 552.89C375.836 551.937 375.517 550.978 375.197 550.004C375.118 549.765 375.011 549.416 374.887 549.009C374.464 547.633 373.84 545.598 373.455 544.978C373.34 544.793 373.251 544.639 373.176 544.511C373.016 544.236 372.923 544.077 372.791 543.966C372.609 543.814 372.353 543.751 371.745 543.603C371.186 543.466 370.328 543.257 368.955 542.837C366.216 541.999 363.478 541.063 360.74 540.127C356.675 538.737 352.611 537.347 348.541 536.278C346.754 537.892 345.08 540.38 343.533 542.679L343.533 542.68L343.53 542.684C343.254 543.093 342.983 543.497 342.715 543.889L334.214 555.617C332.97 557.588 333.056 557.809 333.693 559.45L333.693 559.45C333.827 559.796 333.986 560.205 334.162 560.708L340.885 580.95C341.234 582.021 341.474 582.875 341.669 583.568L341.669 583.568C342.025 584.837 342.23 585.565 342.675 586.09C343.273 586.797 344.308 587.135 346.734 587.927L346.734 587.927L346.734 587.927L347.195 588.078C348.578 588.531 350.151 589.066 351.822 589.634C357.099 591.428 363.352 593.554 367.686 594.481C369.813 591.593 371.992 588.558 374.186 585.501L374.186 585.501ZM348.781 534.427L348.555 509.315C349.225 507.696 350.966 506.561 352.495 505.565L352.495 505.565L352.495 505.565L352.496 505.564C353.01 505.229 353.5 504.91 353.917 504.593L364.839 496.438C366.012 495.558 367.005 494.79 367.862 494.126L367.863 494.125L367.864 494.124C372.301 490.689 373.108 490.064 376.704 491.242L398.243 498.242L398.352 503.703C398.398 508.4 398.515 511.969 398.605 514.724V514.724V514.724V514.724V514.724V514.724V514.724C398.796 520.548 398.868 522.734 397.896 524.253C397.313 525.166 396.352 525.837 394.814 526.913L394.814 526.913C394.32 527.258 393.766 527.646 393.145 528.097C388.334 531.592 384.908 534.298 382.319 536.342C378.035 539.725 376.046 541.297 373.866 541.634C371.976 541.926 369.943 541.292 366.148 540.107L366.138 540.104C365.835 540.009 365.521 539.911 365.195 539.81C364.114 539.474 362.889 539.107 361.59 538.719C357.243 537.417 352.078 535.871 348.781 534.427ZM432.153 594.454C435.555 593.918 440.964 591.972 445.781 590.239C448.09 589.408 450.263 588.626 452.013 588.072C457.406 586.366 457.5 586.027 459.535 578.718C460.094 576.709 460.8 574.174 461.802 570.939C462.341 569.2 462.92 567.583 463.455 566.088C465.086 561.529 466.309 558.108 464.756 555.843C464.243 555.095 463.726 554.369 463.219 553.657L463.217 553.655L463.216 553.653L463.215 553.652L463.213 553.649L463.211 553.646L463.207 553.641L463.2 553.631C462.781 553.042 462.368 552.462 461.968 551.884L450.672 536.167C446.695 536.923 441.763 538.708 437.116 540.389L437.116 540.39L437.115 540.39C434.847 541.211 432.646 542.007 430.658 542.647C430.504 542.697 430.353 542.745 430.208 542.792L430.2 542.794C428.245 543.421 427.089 543.792 426.259 544.53C425.057 545.599 424.541 547.439 423.277 551.944C422.705 553.981 421.981 556.563 420.97 559.864C419.906 563.343 418.898 566.542 417.757 570.103C417.616 570.543 417.487 570.927 417.373 571.266L417.372 571.266C416.994 572.39 416.78 573.023 416.849 573.624C416.938 574.402 417.5 575.126 418.789 576.787C419.289 577.432 419.9 578.219 420.636 579.206L432.153 594.454ZM420.295 480.715C435.703 484.533 450.918 496.591 459.155 509.269C454.963 508.283 450.063 506.563 447.235 504.329C444.302 502.011 441.326 499.967 438.437 497.982L438.437 497.982C431.176 492.994 424.455 488.377 420.295 480.715ZM340.777 508.782C347.97 507.61 358.403 499.611 366.47 493.426L366.472 493.425L366.474 493.423L366.477 493.421C368.041 492.222 369.515 491.092 370.86 490.092C373.159 488.384 377.021 483.343 378.087 481.068C368.581 483.848 359.313 489.519 352.475 495.307C350.28 497.164 341.955 505.918 340.777 508.782ZM471.63 552.171C471.149 566.375 465.672 582.212 458.667 590.674C458.467 585.052 460.372 579.667 462.206 574.481L462.207 574.48L462.207 574.48C462.733 572.991 463.254 571.52 463.717 570.063C464.076 568.935 464.433 567.677 464.806 566.361L464.806 566.36L464.806 566.359C466.352 560.903 468.181 554.449 471.63 552.171ZM340.852 590.309C340.747 584.669 338.875 579.397 336.976 574.048L336.976 574.048C336.545 572.833 336.112 571.614 335.698 570.386C335.144 568.742 334.682 567.226 334.251 565.81C332.717 560.77 331.568 556.997 328.02 553.262C328.297 560.291 329.746 567.505 331.946 573.609C333.025 576.601 334.338 579.643 335.676 582.238C335.783 582.446 335.898 582.671 336.02 582.911C337.212 585.249 339.086 588.926 340.852 590.309ZM382.664 619.302C388.281 622.545 411.753 622.894 417.039 619.153C413.653 617.969 385.432 617.79 382.664 619.302Z" fill="white"/>
<path fill-rule="evenodd" clip-rule="evenodd" d="M374.801 543.307L384.489 573.165L415.006 572.997L424.362 543.825L399.605 525.954C395.559 527.175 380.019 540.863 374.801 543.307Z" fill="white"/>
<path fill-rule="evenodd" clip-rule="evenodd" d="M374.934 488.552C376.955 490.257 383.355 491.707 386.506 492.665C389.088 493.452 397.144 496.345 399.074 496.408C401.252 496.479 421.971 489.708 423.723 488.552C422.987 487.036 421.388 485.213 420.226 483.644C418.866 481.807 418.3 480.107 415.571 479.379C406.099 476.851 393.228 477.257 383.747 479.411C380.134 480.231 380.499 480.811 378.671 483.323C377.455 484.992 375.839 486.924 374.934 488.552Z" fill="white"/>
<path fill-rule="evenodd" clip-rule="evenodd" d="M466.945 554.893C472.355 549.866 471.895 547.31 471.283 541.877C470.479 534.733 465.81 513.366 458.667 510.853C456.514 510.094 454.025 509.205 451.677 508.582C451.739 513.682 451.701 518.803 451.697 523.906C451.687 536.877 450.514 532.909 460.062 545.945C462.282 548.975 464.367 552.438 466.945 554.893Z" fill="white"/>
<path fill-rule="evenodd" clip-rule="evenodd" d="M331.502 555.563C333.388 554.472 342.921 540.338 344.818 537.586C347.973 533.01 346.946 530.972 346.945 524.467C346.942 519.174 346.914 513.871 346.956 508.579C340.218 510.38 339.408 510.168 336.369 515.655C332.008 523.524 329.154 533.243 328.21 542.396C327.05 553.656 329.124 549.079 331.502 555.563Z" fill="white"/>
<path fill-rule="evenodd" clip-rule="evenodd" d="M417.234 617.189C423.797 622.191 445.162 606.295 450.85 600.405C456.286 594.778 457.06 594.502 457.045 588.371C453.638 589.147 433.068 595.729 431.653 597.477C430.638 598.73 429.134 600.953 428.118 602.355L417.234 617.189Z" fill="white"/>
<path fill-rule="evenodd" clip-rule="evenodd" d="M382.201 617.625C381.329 615.506 376.854 609.943 375.261 607.729L367.901 597.69C365.843 595.325 359.053 593.822 355.543 592.647C351.351 591.242 346.623 589.385 342.367 588.386C342.542 593.586 341.77 593.259 348.161 600.046C352.673 604.837 362.034 611.505 368.442 614.539C375.015 617.651 377.227 618.934 382.201 617.625Z" fill="white"/>
</g>
</g>
<defs>
<clipPath id="clip0_920_110">
<rect width="816" height="1056" fill="white"/>
</clipPath>
</defs>
</svg>
