<?xml version="1.0" encoding="UTF-8" standalone="no"?>
<!-- Created with Inkscape (http://www.inkscape.org/) -->

<svg
   version="1.1"
   id="svg2"
   width="816"
   height="1056"
   viewBox="0 0 816 1056"
   sodipodi:docname="Escudo UD Monte Louro Vector Final.ai"
   xmlns:inkscape="http://www.inkscape.org/namespaces/inkscape"
   xmlns:sodipodi="http://sodipodi.sourceforge.net/DTD/sodipodi-0.dtd"
   xmlns="http://www.w3.org/2000/svg"
   xmlns:svg="http://www.w3.org/2000/svg">
  <defs
     id="defs6">
    <clipPath
       clipPathUnits="userSpaceOnUse"
       id="clipPath16">
      <path
         d="M 0,792 H 612 V 0 H 0 Z"
         id="path14" />
    </clipPath>
    <clipPath
       clipPathUnits="userSpaceOnUse"
       id="clipPath48">
      <path
         d="M 0,792 H 612 V 0 H 0 Z"
         id="path46" />
    </clipPath>
    <clipPath
       clipPathUnits="userSpaceOnUse"
       id="clipPath96">
      <path
         d="M 0,792 H 612 V 0 H 0 Z"
         id="path94" />
    </clipPath>
  </defs>
  <sodipodi:namedview
     id="namedview4"
     pagecolor="#ffffff"
     bordercolor="#000000"
     borderopacity="0.25"
     inkscape:showpageshadow="2"
     inkscape:pageopacity="0.0"
     inkscape:pagecheckerboard="0"
     inkscape:deskcolor="#d1d1d1" />
  <g
     id="g8"
     inkscape:groupmode="layer"
     inkscape:label="Escudo UD Monte Louro Vector Final"
     transform="matrix(1.3333333,0,0,-1.3333333,0,1056)">
    <g
       id="g10">
      <g
         id="g12"
         clip-path="url(#clipPath16)">
        <g
           id="g18"
           transform="translate(40.9964,749.6975)">
          <path
             d="m 0,0 c -1.241,-98.078 2.36,-196.537 10.804,-295.379 8.987,-95.627 29.252,-189.807 73.259,-277.833 46.521,-80.279 99.871,-139.966 176.457,-164.667 81.476,29.355 105.39,59.259 150.732,122.311 C 520.711,-463.357 521.558,-195.696 521.558,0 Z"
             style="fill:#ffffff;fill-opacity:1;fill-rule:evenodd;stroke:none"
             id="path20" />
        </g>
        <g
           id="g22"
           transform="translate(40.9964,749.6975)">
          <path
             d="m 0,0 c -1.241,-98.078 2.36,-196.537 10.804,-295.379 8.987,-95.627 29.252,-189.807 73.259,-277.833 46.521,-80.279 99.871,-139.966 176.457,-164.667 81.476,29.355 105.39,59.259 150.732,122.311 C 520.711,-463.357 521.558,-195.696 521.558,0 Z"
             style="fill:none;stroke:#003398;stroke-width:7.786;stroke-linecap:butt;stroke-linejoin:miter;stroke-miterlimit:22.926;stroke-dasharray:none;stroke-opacity:1"
             id="path24" />
        </g>
        <g
           id="g26"
           transform="translate(60.3183,731.4406)">
          <path
             d="m 0,0 c -2.545,-77.92 0.007,-159.179 6.628,-234.834 4.943,-58.446 10.722,-120.744 24.705,-175.802 11.18,-50.505 28.874,-98.276 53.586,-143.246 16.526,-27.021 40.457,-60.344 63.724,-86.422 25.298,-24.37 55.238,-46.516 92.517,-56.025 75.422,27.702 97.383,56.045 139.53,115.423 C 482.266,-437.803 483.193,-185.532 482.8,0 Z"
             style="fill:#ffffff;fill-opacity:1;fill-rule:evenodd;stroke:none"
             id="path28" />
        </g>
        <g
           id="g30"
           transform="translate(60.3183,731.4406)">
          <path
             d="m 0,0 c -2.545,-77.92 0.007,-159.179 6.628,-234.834 4.943,-58.447 10.722,-120.744 24.705,-175.802 11.18,-50.505 28.874,-98.276 53.586,-143.246 16.526,-27.021 40.457,-60.344 63.724,-86.422 25.298,-24.37 55.238,-46.516 92.517,-56.025 75.422,27.702 97.383,56.045 139.53,115.423 C 482.266,-437.803 483.193,-185.532 482.8,0 Z"
             style="fill:none;stroke:#003398;stroke-width:10.403;stroke-linecap:butt;stroke-linejoin:miter;stroke-miterlimit:22.926;stroke-dasharray:none;stroke-opacity:1"
             id="path32" />
        </g>
        <g
           id="g34"
           transform="translate(70.6433,503.4158)">
          <path
             d="M 0,0 124.769,123.521 178.582,75.045 226.68,116.063 308.114,55.934 463.683,0 Z"
             style="fill:#003398;fill-opacity:1;fill-rule:evenodd;stroke:none"
             id="path36" />
        </g>
      </g>
    </g>
    <g
       aria-label="U. D."
       transform="matrix(1,0,0,-1,207.3052,651.0264)"
       id="text40"
       style="font-weight:bold;font-size:86.914px;font-family:Arial;-inkscape-font-specification:Arial-BoldMT;fill:#1a1a18">
      <path
         d="M 6.2384562,-62.214808 H 18.800245 v 33.696151 q 0,8.020872 0.466824,10.397427 0.806331,3.819463 3.819463,6.153579 3.05557,2.2916782 8.317941,2.2916782 5.347248,0 8.063311,-2.1643622 2.716062,-2.206801 3.267763,-5.389687 0.5517,-3.182886 0.5517,-10.567181 v -34.417605 h 12.561789 v 32.677628 q 0,11.203758 -1.018523,15.829552 -1.018524,4.6257939 -3.777025,7.8086797 -2.716062,3.1828858 -7.299418,5.09261723 -4.583355,1.86729297 -11.967651,1.86729297 -8.91208,0 -13.537874,-2.03704688 Q 13.66519,-3.0555704 10.991566,-6.3233331 8.3179415,-9.6335343 7.469172,-13.240805 6.2384562,-18.588053 6.2384562,-29.027918 Z"
         id="path194" />
      <path
         d="M 68.990364,0 V -11.925212 H 80.915576 V 0 Z"
         id="path196" />
      <path
         d="m 117.357,-62.214808 h 22.95921 q 7.76625,0 11.84034,1.188278 5.47456,1.612662 9.3789,5.729194 3.90434,4.116532 5.94139,10.100358 2.03705,5.941387 2.03705,14.683713 0,7.681364 -1.90974,13.240805 -2.33411,6.790156 -6.66284,10.9915654 -3.26776,3.1828858 -8.8272,4.9653018 Q 147.95514,0 140.99523,0 H 117.357 Z m 12.56179,10.524743 v 41.207761 h 9.3789 q 5.26237,0 7.59649,-0.594139 3.05557,-0.763892 5.05018,-2.588747 2.03704,-1.824854 3.3102,-5.983825 1.27315,-4.201409 1.27315,-11.41595 0,-7.214542 -1.27315,-11.076443 -1.27316,-3.861901 -3.56483,-6.026264 -2.29168,-2.164362 -5.81408,-2.928255 -2.63118,-0.594138 -10.31255,-0.594138 z"
         id="path198" />
      <path
         d="m 180.06646,0 v -11.925212 h 11.92521 V 0 Z"
         id="path200" />
    </g>
    <g
       id="g42">
      <g
         id="g44"
         clip-path="url(#clipPath48)">
        <g
           aria-label="M"
           transform="matrix(0.28621526,-0.96027081,-0.93747839,-0.27906984,100.0208,344.1309)"
           id="text52"
           style="font-weight:bold;font-size:88.8541px;font-family:Arial;-inkscape-font-specification:Arial-BoldMT;fill:#1a1a18">
          <path
             d="M 6.2909399,0 V -63.603572 H 25.510846 L 37.051467,-20.217779 48.46193,-63.603572 H 67.725222 V 0 H 55.794129 V -50.067205 L 43.168864,0 H 30.803913 L 18.222033,-50.067205 V 0 Z"
             id="path203" />
        </g>
        <g
           aria-label="O"
           transform="matrix(0.35288564,-0.93890593,-0.91667758,-0.34417388,120.2674,273.5529)"
           id="text56"
           style="font-weight:bold;font-size:88.765px;font-family:Arial;-inkscape-font-specification:Arial-BoldMT;fill:#1a1a18">
          <path
             d="m 3.8574634,-31.379814 q 0,-9.708672 2.903933,-16.296699 2.1671143,-4.854336 5.8945506,-8.7118 3.770779,-3.857463 8.235034,-5.721181 5.937893,-2.513853 13.696162,-2.513853 14.042901,0 22.451304,8.7118 8.451745,8.711799 8.451745,24.228337 0,15.386511 -8.365061,24.0983101 -8.365061,8.668457 -22.364619,8.668457 -14.172927,0 -22.537988,-8.6251147 Q 3.8574634,-16.210015 3.8574634,-31.379814 Z M 17.07686,-31.813237 q 0,10.792229 4.984363,16.383384 4.984363,5.5478121 12.655947,5.5478121 7.671585,0 12.569263,-5.5044701 4.94102,-5.547813 4.94102,-16.600095 0,-10.922256 -4.810993,-16.296699 -4.767652,-5.374444 -12.69929,-5.374444 -7.931638,0 -12.785974,5.461128 -4.854336,5.417786 -4.854336,16.383384 z"
             id="path206" />
        </g>
        <g
           aria-label="N"
           transform="matrix(0.51217359,-0.86619881,-0.84566413,-0.49969953,144.5376,210.8642)"
           id="text60"
           style="font-weight:bold;font-size:88.4796px;font-family:Arial;-inkscape-font-specification:Arial-BoldMT;fill:#1a1a18">
          <path
             d="M 6.5668452,0 V -63.335494 H 19.009289 l 25.921757,42.295667 V -63.335494 H 56.811852 V 0 H 43.980582 L 18.447651,-41.302 V 0 Z"
             id="path209" />
        </g>
        <g
           aria-label="T"
           transform="matrix(0.61563365,-0.79943444,-0.78061815,-0.60075334,177.2848,156.7063)"
           id="text64"
           style="font-weight:bold;font-size:88.2374px;font-family:Arial;-inkscape-font-specification:Arial-BoldMT;fill:#1a1a18">
          <path
             d="M 20.637555,0 V -52.477123 H 1.8957253 V -63.162121 H 52.089361 v 10.684998 H 33.390616 V 0 Z"
             id="path212" />
        </g>
        <g
           aria-label="E"
           transform="matrix(0.73462774,-0.69474945,-0.6784704,-0.71686557,212.6211,110.4398)"
           id="text68"
           style="font-weight:bold;font-size:88.0579px;font-family:Arial;-inkscape-font-specification:Arial-BoldMT;fill:#1a1a18">
          <path
             d="M 6.4065562,0 V -63.033633 H 53.144318 v 10.663261 H 19.133674 v 13.974032 h 31.645808 v 10.620264 H 19.133674 v 17.155812 H 54.348235 V 0 Z"
             id="path215" />
        </g>
      </g>
    </g>
    <g
       aria-label="O"
       transform="matrix(0.27559137,0.96127488,0.96127488,-0.27559137,487.3682,280.8054)"
       id="text72"
       style="font-weight:bold;font-size:90.7459px;font-family:Arial;-inkscape-font-specification:Arial-BoldMT;fill:#1a1a18">
      <path
         d="m 3.9435475,-32.080095 q 0,-9.925333 2.9687381,-16.66038 2.2154761,-4.962667 6.0260954,-8.906214 3.854928,-3.943548 8.418809,-5.848857 6.070405,-2.569953 14.001809,-2.569953 14.356286,0 22.952333,8.906214 8.640357,8.906215 8.640357,24.769024 0,15.72988 -8.551738,24.6360945 -8.551738,8.8619046 -22.863714,8.8619046 -14.489214,0 -23.040952,-8.8175951 -8.5517375,-8.861905 -8.5517375,-24.370238 z M 17.457952,-32.52319 q 0,11.033071 5.095595,16.749 5.095595,5.671619 12.938381,5.671619 7.842785,0 12.849762,-5.62731 5.051285,-5.671619 5.051285,-16.970547 0,-11.166 -4.918357,-16.660381 -4.874047,-5.49438 -12.98269,-5.49438 -8.108643,0 -13.071309,5.582999 -4.962667,5.538691 -4.962667,16.749 z"
         id="path218" />
    </g>
    <g
       aria-label="R"
       transform="matrix(0.3907077,0.9205148,0.9205148,-0.3907077,461.8928,220.0321)"
       id="text76"
       style="font-weight:bold;font-size:90.743px;font-family:Arial;-inkscape-font-specification:Arial-BoldMT;fill:#1a1a18">
      <path
         d="M 6.6462155,0 V -64.95568 H 34.250164 q 10.412404,0 15.109063,1.772324 4.740968,1.728016 7.576686,6.203135 2.835719,4.475118 2.835719,10.235172 0,7.310837 -4.297886,12.096112 -4.297886,4.740967 -12.84935,5.981594 4.253578,2.481254 7.00068,5.449897 2.791411,2.968643 7.48807,10.545328 L 65.044296,0 H 49.359227 l -9.481934,-14.134285 q -5.051124,-7.576686 -6.912064,-9.526242 -1.86094,-1.993865 -3.943421,-2.702795 -2.082481,-0.753237 -6.601908,-0.753237 H 19.761414 V 0 Z M 19.761414,-37.484656 h 9.703475 q 9.437626,0 11.785955,-0.797546 2.34833,-0.797545 3.677573,-2.747102 1.329243,-1.949557 1.329243,-4.873891 0,-3.2788 -1.772324,-5.272665 -1.728016,-2.038172 -4.918199,-2.56987 -1.595092,-0.22154 -9.570551,-0.22154 H 19.761414 Z"
         id="path221" />
    </g>
    <g
       aria-label="U"
       transform="matrix(0.50000972,0.86601979,0.86601979,-0.50000972,428.9596,163.7766)"
       id="text80"
       style="font-weight:bold;font-size:90.742px;font-family:Arial;-inkscape-font-specification:Arial-BoldMT;fill:#1a1a18">
      <path
         d="M 6.5132195,-64.954964 H 19.628274 v 35.180246 q 0,8.37414 0.487383,10.855366 0.841845,3.987686 3.987686,6.424604 3.190148,2.392612 8.684293,2.392612 5.582759,0 8.418447,-2.259689 2.835687,-2.303996 3.411686,-5.627067 0.575999,-3.323071 0.575999,-11.032596 V -64.954964 H 58.308822 V -30.8381 q 0,11.69721 -1.063383,16.52674 -1.063382,4.8295303 -3.943377,8.1526014 -2.835688,3.3230712 -7.62091,5.3169139 -4.785223,1.9495351 -12.494748,1.9495351 -9.304599,0 -14.134129,-2.1267656 -4.785223,-2.1710731 -7.576603,-5.5827595 -2.7913793,-3.4559943 -3.6775317,-7.2221413 -1.2849208,-5.58276 -1.2849208,-16.482433 z"
         id="path224" />
    </g>
    <g
       aria-label="O"
       transform="matrix(0.61568938,0.78798895,0.78798895,-0.61568938,386.5178,107.5216)"
       id="text84"
       style="font-weight:bold;font-size:90.7454px;font-family:Arial;-inkscape-font-specification:Arial-BoldMT;fill:#1a1a18">
      <path
         d="m 3.9435257,-32.079917 q 0,-9.925278 2.9687215,-16.660288 2.2154639,-4.962639 6.0260618,-8.906164 3.854907,-3.943526 8.418763,-5.848825 6.070371,-2.569938 14.001731,-2.569938 14.356206,0 22.952206,8.906165 8.640309,8.906164 8.640309,24.768885 0,15.729794 -8.551691,24.6359585 -8.55169,8.8618554 -22.863587,8.8618554 -14.489133,0 -23.040824,-8.8175461 Q 3.9435257,-16.57167 3.9435257,-32.079917 Z m 13.5143293,-0.443092 q 0,11.03301 5.095567,16.748906 5.095567,5.671588 12.938309,5.671588 7.842742,0 12.84969,-5.627278 5.051258,-5.671588 5.051258,-16.970453 0,-11.165938 -4.91833,-16.660289 -4.87402,-5.49435 -12.982618,-5.49435 -8.108598,0 -13.071237,5.582969 -4.962639,5.53866 -4.962639,16.748907 z"
         id="path227" />
    </g>
    <g
       aria-label="L"
       transform="matrix(0.73137041,0.68198044,0.68198044,-0.73137041,346.4982,69.4565)"
       id="text88"
       style="font-weight:bold;font-size:90.7472px;font-family:Arial;-inkscape-font-specification:Arial-BoldMT;fill:#1a1a18">
      <path
         d="M 6.9566945,0 V -64.426967 H 20.072501 v 53.482358 H 52.684776 V 0 Z"
         id="path230" />
    </g>
    <g
       id="g90">
      <g
         id="g92"
         clip-path="url(#clipPath96)">
        <g
           id="g98"
           transform="translate(283.9771,331.5084)">
          <path
             d="M 0,0 C 9.168,-3.769 22.359,-4.909 35.081,0.022 L 49.341,-31.016 17.644,-232.054 -14.054,-31.016 Z"
             style="fill:#003398;fill-opacity:1;fill-rule:evenodd;stroke:none"
             id="path100" />
        </g>
        <g
           id="g102"
           transform="translate(283.9771,331.5084)">
          <path
             d="M 0,0 C 9.168,-3.769 22.359,-4.909 35.081,0.022 L 49.341,-31.016 17.644,-232.054 -14.054,-31.016 Z"
             style="fill:none;stroke:#ffffff;stroke-width:0.216;stroke-linecap:butt;stroke-linejoin:miter;stroke-miterlimit:22.926;stroke-dasharray:none;stroke-opacity:1"
             id="path104" />
        </g>
        <g
           id="g106"
           transform="translate(430.4373,380.0733)">
          <path
             d="m 0,0 c -11.74,14.471 -23.059,33.473 -35.746,39.268 -7.927,2.751 -15.324,4.398 -23.259,3.77 -2.537,-0.699 -8.631,-0.253 -6.439,-6.761 l 14.001,-23.355 c -0.12,-0.49 3.303,-5.167 -5.722,-5.498 l -20.37,0.247 c 0.729,-5.189 0.689,-10.394 -0.176,-15.622 l 19.046,0.187 c 2.605,0.026 8.567,0.632 7.681,-4.267 -0.415,-2.292 -9.635,-15.369 -13.945,-23.441 -2.227,-4.169 -0.731,-6.269 -0.263,-6.464 2.706,-1.127 8.007,-1.742 12.489,-1.983 4.306,-0.231 14.848,-0.05 23.138,7.26 4.351,3.838 16.779,21.258 18.483,23.751 C -9.168,-10.107 -4.311,-3.285 0,0"
             style="fill:#e2000f;fill-opacity:1;fill-rule:evenodd;stroke:none"
             id="path108" />
        </g>
        <g
           id="g110"
           transform="translate(430.4373,380.0733)">
          <path
             d="m 0,0 c -11.74,14.471 -23.059,33.473 -35.746,39.268 -7.927,2.751 -15.324,4.398 -23.259,3.77 -2.537,-0.699 -8.631,-0.253 -6.439,-6.761 l 14.001,-23.355 c -0.12,-0.49 3.303,-5.167 -5.722,-5.498 l -20.37,0.247 c 0.729,-5.189 0.689,-10.394 -0.176,-15.622 l 19.046,0.187 c 2.605,0.026 8.567,0.632 7.681,-4.267 -0.415,-2.292 -9.635,-15.369 -13.945,-23.441 -2.227,-4.169 -0.731,-6.269 -0.263,-6.464 2.706,-1.127 8.007,-1.742 12.489,-1.983 4.306,-0.231 14.848,-0.05 23.138,7.26 4.351,3.838 16.779,21.258 18.483,23.751 C -9.168,-10.107 -4.311,-3.285 0,0 Z"
             style="fill:none;stroke:#ffffff;stroke-width:0.216;stroke-linecap:butt;stroke-linejoin:miter;stroke-miterlimit:22.926;stroke-dasharray:none;stroke-opacity:1"
             id="path112" />
        </g>
        <g
           id="g114"
           transform="translate(167.9845,380.0364)">
          <path
             d="m 0,0 c 11.74,-14.471 23.059,-33.474 35.746,-39.268 7.928,-2.751 15.324,-4.398 23.259,-3.77 2.538,0.699 8.631,0.252 6.439,6.761 l -14.001,23.354 c 0.12,0.491 -3.302,5.168 5.722,5.499 L 78.86,-7.678 C 77.93,-2.586 77.752,2.627 78.541,8.008 L 58.665,7.764 C 56.061,7.732 50.097,7.132 50.984,12.031 51.4,14.324 60.62,27.4 64.93,35.472 c 2.226,4.169 0.73,6.269 0.262,6.463 -2.706,1.128 -8.006,1.743 -12.489,1.984 -4.306,0.231 -14.848,0.05 -23.137,-7.26 C 25.214,32.82 12.786,15.401 11.082,12.907 9.168,10.107 4.312,3.284 0,0"
             style="fill:#e2000f;fill-opacity:1;fill-rule:evenodd;stroke:none"
             id="path116" />
        </g>
        <g
           id="g118"
           transform="translate(167.9845,380.0364)">
          <path
             d="m 0,0 c 11.74,-14.471 23.059,-33.474 35.746,-39.268 7.928,-2.751 15.324,-4.398 23.259,-3.77 2.538,0.699 8.631,0.252 6.439,6.761 l -14.001,23.354 c 0.12,0.491 -3.302,5.168 5.722,5.499 L 78.86,-7.678 C 77.93,-2.586 77.752,2.627 78.541,8.008 L 58.665,7.764 C 56.061,7.732 50.097,7.132 50.984,12.031 51.4,14.324 60.62,27.4 64.93,35.472 c 2.226,4.169 0.73,6.269 0.262,6.463 -2.706,1.128 -8.006,1.743 -12.489,1.984 -4.306,0.231 -14.848,0.05 -23.137,-7.26 C 25.214,32.82 12.786,15.401 11.082,12.907 9.168,10.107 4.312,3.284 0,0 Z"
             style="fill:none;stroke:#ffffff;stroke-width:0.216;stroke-linecap:butt;stroke-linejoin:miter;stroke-miterlimit:22.926;stroke-dasharray:none;stroke-opacity:1"
             id="path120" />
        </g>
        <g
           id="g122"
           transform="translate(301.7265,511.5495)">
          <path
             d="m 0,0 c -14.471,-11.74 -33.473,-23.059 -39.268,-35.746 -2.751,-7.928 -4.398,-15.323 -3.77,-23.259 0.699,-2.538 0.252,-8.631 6.761,-6.439 l 23.354,14.001 c 0.491,-0.12 5.168,3.302 5.499,-5.722 l -0.25,-20.647 c 5.289,0.838 10.501,0.71 15.656,-0.144 l -0.218,19.291 c -0.029,2.604 -0.632,8.567 4.267,7.681 2.293,-0.416 15.369,-9.636 23.441,-13.946 4.169,-2.226 6.269,-0.73 6.464,-0.262 1.127,2.706 1.742,8.006 1.983,12.489 0.231,4.306 0.05,14.848 -7.26,23.137 -3.838,4.352 -21.258,16.78 -23.751,18.484 C 10.107,-9.168 3.284,-4.312 0,0"
             style="fill:#e2000f;fill-opacity:1;fill-rule:evenodd;stroke:none"
             id="path124" />
        </g>
        <g
           id="g126"
           transform="translate(294.8871,434.717)">
          <path
             d="m 0,0 c -7.308,-0.555 -15.577,-3.123 -21.139,-6.314 -3.978,-2.283 -8.759,-5.308 -11.769,-8.441 l -3.563,-3.584 c -9.386,-11.94 -15.159,-25.105 -13.468,-41.735 2.938,-28.879 27.876,-52.972 60.122,-49.827 49.727,4.85 66.195,66.753 31.104,96.418 C 29.395,-3.43 16.349,1.242 0,0"
             style="fill:#000000;fill-opacity:1;fill-rule:evenodd;stroke:none"
             id="path128" />
        </g>
        <g
           id="g130"
           transform="translate(300.1958,418.3682)">
          <path
             d="m 0,0 -0.157,-19.746 c 1.943,-0.889 13.755,-9.836 16.423,-11.827 3.352,-2.501 3.337,-1.285 10.262,0.853 3.484,1.075 7.326,2.279 10.664,3.566 0.273,19.908 2.397,18.042 -5.015,23.253 L 21.211,4.08 C 17.996,6.409 18.751,6.187 14.601,4.768 9.726,3.101 4.767,1.658 0,0"
             style="fill:#fdfdfd;fill-opacity:1;fill-rule:evenodd;stroke:none"
             id="path132" />
        </g>
        <g
           id="g134"
           transform="translate(276.9259,345.1995)">
          <path
             d="m 0,0 c 0.711,-1.704 9.236,-12.893 11.297,-15.944 l 23.267,0.086 C 36.153,-13.279 44.939,-1.854 45.808,0 45.38,1.095 43.607,3.273 42.764,4.414 c -0.967,1.307 -2.208,2.982 -3.212,4.362 -6.416,8.823 -1.734,6.987 -20.561,6.987 -7.774,0 -7.057,0.815 -9.316,-2.231 C 6.28,8.954 3.168,4.63 0,0"
             style="fill:#fdfdfd;fill-opacity:1;fill-rule:evenodd;stroke:none"
             id="path136" />
        </g>
        <g
           id="g138"
           transform="translate(275.7645,346.1391)">
          <path
             d="m 0,0 c 2.736,3.715 5.585,7.753 8.412,11.642 3.517,4.838 3.002,3.173 -0.298,14.088 -0.784,2.592 -1.631,5.04 -2.481,7.628 -0.257,0.784 -0.932,3.167 -1.306,3.769 -0.758,1.223 -0.033,0.584 -3.375,1.606 -5.106,1.562 -10.203,3.578 -15.311,4.919 -1.58,-1.427 -3.042,-3.765 -4.369,-5.708 l -6.376,-8.796 c -1.13,-1.79 -0.797,-1.656 -0.039,-3.818 l 5.042,-15.182 c 1.427,-4.374 0.424,-3.935 4.733,-5.346 C -11.053,3.389 -4.279,0.915 0,0"
             style="fill:#fdfdfd;fill-opacity:1;fill-rule:evenodd;stroke:none"
             id="path140" />
        </g>
        <g
           id="g142"
           transform="translate(261.4164,410.0136)">
          <path
             d="m 0,0 0.17,-18.834 c 3.211,-1.406 8.785,-2.942 12.31,-4.037 8.992,-2.794 5.786,-2.239 20.963,8.785 5.46,3.966 4.07,1.41 3.905,18.295 l -0.082,4.096 -16.154,5.25 c -3.218,1.054 -3.458,0.183 -8.899,-3.897 L 4.022,3.542 C 2.778,2.597 0.672,1.623 0,0"
             style="fill:#fdfdfd;fill-opacity:1;fill-rule:evenodd;stroke:none"
             id="path144" />
        </g>
        <g
           id="g146"
           transform="translate(324.1157,346.1598)">
          <path
             d="m 0,0 c 3.774,0.594 10.844,3.504 14.895,4.786 5.156,1.631 3.854,1.596 7.342,12.85 1.637,5.283 3.762,9.066 2.215,11.322 -0.708,1.032 -1.424,2.006 -2.091,2.969 L 13.889,43.715 C 9.45,42.871 3.424,40.318 -1.121,38.855 -6.077,37.259 -4.71,37.962 -8.387,25.942 c -0.798,-2.609 -1.554,-5.008 -2.41,-7.679 -1.087,-3.394 -1.24,-2.268 2.159,-6.827 z"
             style="fill:#fdfdfd;fill-opacity:1;fill-rule:evenodd;stroke:none"
             id="path148" />
        </g>
        <g
           id="g150"
           transform="translate(281.1019,384.5194)">
          <path
             d="m 0,0 7.266,-22.393 22.888,0.126 7.017,21.879 -18.568,13.403 C 15.569,12.099 3.914,1.833 0,0"
             style="fill:#020202;fill-opacity:1;fill-rule:evenodd;stroke:none"
             id="path152" />
        </g>
        <g
           id="g154"
           transform="translate(281.2011,425.5858)">
          <path
             d="m 0,0 c 1.516,-1.279 6.316,-2.366 8.679,-3.085 1.937,-0.59 7.979,-2.76 9.426,-2.807 C 19.739,-5.945 35.278,-0.867 36.592,0 36.04,1.137 34.841,2.504 33.969,3.681 32.949,5.059 32.525,6.334 30.478,6.88 23.374,8.776 13.721,8.471 6.61,6.856 3.9,6.241 4.174,5.806 2.803,3.922 1.891,2.67 0.679,1.221 0,0"
             style="fill:#020202;fill-opacity:1;fill-rule:evenodd;stroke:none"
             id="path156" />
        </g>
        <g
           id="g158"
           transform="translate(350.2094,375.8304)">
          <path
             d="m 0,0 c 4.058,3.77 3.713,5.687 3.254,9.762 -0.603,5.358 -4.105,21.383 -9.462,23.268 -1.615,0.569 -3.482,1.236 -5.243,1.703 0.047,-3.825 0.018,-7.666 0.015,-11.493 -0.007,-9.728 -0.887,-6.752 6.274,-16.529 C -3.497,4.438 -1.933,1.841 0,0"
             style="fill:#020202;fill-opacity:1;fill-rule:evenodd;stroke:none"
             id="path160" />
        </g>
        <g
           id="g162"
           transform="translate(248.6273,375.3278)">
          <path
             d="m 0,0 c 1.414,0.818 8.564,11.419 9.987,13.483 2.366,3.432 1.596,4.96 1.595,9.839 -0.002,3.97 -0.023,7.947 0.008,11.916 C 6.537,33.887 5.929,34.046 3.65,29.931 0.379,24.029 -1.761,16.74 -2.469,9.875 -3.339,1.43 -1.784,4.863 0,0"
             style="fill:#020202;fill-opacity:1;fill-rule:evenodd;stroke:none"
             id="path164" />
        </g>
        <g
           id="g166"
           transform="translate(312.9265,329.1083)">
          <path
             d="m 0,0 c 4.922,-3.752 20.946,8.17 25.212,12.588 4.077,4.22 4.657,4.427 4.646,9.025 C 27.303,21.031 11.875,16.095 10.814,14.784 10.053,13.844 8.925,12.177 8.163,11.125 Z"
             style="fill:#020202;fill-opacity:1;fill-rule:evenodd;stroke:none"
             id="path168" />
        </g>
        <g
           id="g170"
           transform="translate(286.6516,328.7812)">
          <path
             d="m 0,0 c -0.654,1.589 -4.01,5.761 -5.205,7.422 l -5.52,7.529 c -1.543,1.774 -6.636,2.901 -9.268,3.782 -3.144,1.054 -6.69,2.447 -9.882,3.196 0.131,-3.9 -0.448,-3.655 4.345,-8.745 C -22.146,9.591 -15.125,4.59 -10.319,2.314 -5.389,-0.02 -3.73,-0.982 0,0"
             style="fill:#020202;fill-opacity:1;fill-rule:evenodd;stroke:none"
             id="path172" />
        </g>
        <g
           id="g174"
           transform="translate(344.3661,410.0485)">
          <path
             d="M 0,0 C -6.178,9.508 -17.589,18.552 -29.145,21.415 -24.783,13.381 -16.667,9.811 -8.94,3.705 -6.819,2.029 -3.144,0.739 0,0"
             style="fill:#fdfdfd;fill-opacity:1;fill-rule:evenodd;stroke:none"
             id="path176" />
        </g>
        <g
           id="g178"
           transform="translate(255.5836,410.4136)">
          <path
             d="m 0,0 c 6.442,1.049 16.349,9.4 22.562,14.017 1.724,1.281 4.621,5.062 5.42,6.768 C 20.853,18.7 13.902,14.447 8.773,10.106 7.127,8.713 0.883,2.148 0,0"
             style="fill:#fdfdfd;fill-opacity:1;fill-rule:evenodd;stroke:none"
             id="path180" />
        </g>
        <g
           id="g182"
           transform="translate(344.001,348.9945)">
          <path
             d="M 0,0 C 5.254,6.346 9.362,18.224 9.722,28.877 6.511,26.756 5.173,19.81 3.788,15.458 2.229,10.559 -0.193,5.427 0,0"
             style="fill:#fdfdfd;fill-opacity:1;fill-rule:evenodd;stroke:none"
             id="path184" />
        </g>
        <g
           id="g186"
           transform="translate(255.6394,349.2686)">
          <path
             d="m 0,0 c -0.096,5.19 -2.188,9.965 -3.865,14.942 -1.894,5.619 -2.35,9.254 -5.759,12.843 0.208,-5.272 1.295,-10.682 2.945,-15.26 C -5.87,10.281 -4.885,7.999 -3.882,6.053 -3.019,4.378 -1.46,1.143 0,0"
             style="fill:#fdfdfd;fill-opacity:1;fill-rule:evenodd;stroke:none"
             id="path188" />
        </g>
        <g
           id="g190"
           transform="translate(286.9988,327.5232)">
          <path
             d="M 0,0 C 4.213,-2.432 21.817,-2.694 25.781,0.112 23.242,1 2.076,1.134 0,0"
             style="fill:#fdfdfd;fill-opacity:1;fill-rule:evenodd;stroke:none"
             id="path192" />
        </g>
      </g>
    </g>
  </g>
</svg>
